<mxfile host="app.diagrams.net" modified="2023-10-26T10:56:53.725Z" agent="Mozilla/5.0 (Windows NT 10.0; Win64; x64) AppleWebKit/537.36 (KHTML, like Gecko) Chrome/118.0.0.0 Safari/537.36 Edg/118.0.2088.61" etag="X06A361xw7HoWUbwtCLD" version="22.0.8" type="device">
  <diagram name="Page-1" id="KccEnCkjtn67AlQJ9c9Q">
    <mxGraphModel dx="621" dy="496" grid="1" gridSize="10" guides="1" tooltips="1" connect="1" arrows="1" fold="1" page="1" pageScale="1" pageWidth="850" pageHeight="1100" math="0" shadow="0">
      <root>
        <mxCell id="0" />
        <mxCell id="1" parent="0" />
        <mxCell id="37viqP7tvcgFU4f2_4-J-1" value="main()" style="rounded=0;whiteSpace=wrap;html=1;" vertex="1" parent="1">
          <mxGeometry x="410" y="40" width="60" height="20" as="geometry" />
        </mxCell>
        <mxCell id="MBgNElhX03l3eSgxgnAY-1" value="main()" style="rounded=0;whiteSpace=wrap;html=1;" vertex="1" parent="1">
          <mxGeometry x="180" y="80" width="60" height="20" as="geometry" />
        </mxCell>
        <mxCell id="MBgNElhX03l3eSgxgnAY-2" value="main()" style="rounded=0;whiteSpace=wrap;html=1;" vertex="1" parent="1">
          <mxGeometry x="350" y="100" width="60" height="20" as="geometry" />
        </mxCell>
        <mxCell id="MBgNElhX03l3eSgxgnAY-3" value="main()" style="rounded=0;whiteSpace=wrap;html=1;" vertex="1" parent="1">
          <mxGeometry x="270" y="130" width="60" height="20" as="geometry" />
        </mxCell>
        <mxCell id="MBgNElhX03l3eSgxgnAY-4" value="main()" style="rounded=0;whiteSpace=wrap;html=1;" vertex="1" parent="1">
          <mxGeometry x="460" y="120" width="60" height="20" as="geometry" />
        </mxCell>
        <mxCell id="MBgNElhX03l3eSgxgnAY-5" value="main()" style="rounded=0;whiteSpace=wrap;html=1;" vertex="1" parent="1">
          <mxGeometry x="350" y="150" width="60" height="20" as="geometry" />
        </mxCell>
        <mxCell id="MBgNElhX03l3eSgxgnAY-6" value="main()" style="rounded=0;whiteSpace=wrap;html=1;" vertex="1" parent="1">
          <mxGeometry x="400" y="200" width="60" height="20" as="geometry" />
        </mxCell>
        <mxCell id="MBgNElhX03l3eSgxgnAY-7" value="main()" style="rounded=0;whiteSpace=wrap;html=1;" vertex="1" parent="1">
          <mxGeometry x="510" y="170" width="60" height="20" as="geometry" />
        </mxCell>
        <mxCell id="MBgNElhX03l3eSgxgnAY-8" value="main()" style="rounded=0;whiteSpace=wrap;html=1;" vertex="1" parent="1">
          <mxGeometry x="210" y="250" width="60" height="20" as="geometry" />
        </mxCell>
        <mxCell id="MBgNElhX03l3eSgxgnAY-9" value="main()" style="rounded=0;whiteSpace=wrap;html=1;" vertex="1" parent="1">
          <mxGeometry x="320" y="220" width="60" height="20" as="geometry" />
        </mxCell>
      </root>
    </mxGraphModel>
  </diagram>
</mxfile>
